<?xml version="1.0" encoding="utf-8"?>
<!-- Generator: Adobe Illustrator 22.1.0, SVG Export Plug-In . SVG Version: 6.00 Build 0)  -->
<svg version="1.1" id="图层_1" xmlns="http://www.w3.org/2000/svg" xmlns:xlink="http://www.w3.org/1999/xlink" x="0px" y="0px"
	 viewBox="25 15 105 105" style="enable-background:new 0 0 256 256;" xml:space="preserve"
    height="40" width="40">
<style type="text/css">
	.st0{fill:#FF3034;}
	.st1{fill:#666565;}
	.st2{enable-background:new    ;}
	.st3{fill:#FFFEFE;}
	.st4{fill:none;stroke:#E71D16;stroke-width:3;stroke-miterlimit:10;}
</style>
<g id="XMLID_230_">
	<path id="XMLID_28_" class="st0" d="M61.7,90.5c0,3.6-2.9,6.5-6.5,6.5s-6.5-2.9-6.5-6.5s2.9-6.5,6.5-6.5S61.7,86.9,61.7,90.5"/>
	<path id="XMLID_27_" class="st0" d="M118.9,83.7C114.7,54,91.1,30.4,61.4,26.2c-3.5,1.8-6.7,4.2-9.5,6.9v6.3
		c29.7,0,53.8,24.1,53.8,53.8h6.3C114.7,90.4,117,87.2,118.9,83.7"/>
	<path id="XMLID_26_" class="st0" d="M123.8,63.8c0-23.5-19.1-42.6-42.6-42.6c-1.5,0-2.9,0.1-4.4,0.2l-1,2.8
		c20.9,7.3,37.5,23.9,44.9,44.8l2.8-1C123.7,66.7,123.8,65.3,123.8,63.8"/>
	<path id="XMLID_25_" class="st0" d="M81.1,96.1c1-10.6-3.7-20.4-11.6-26.4c-4.2-3.2-9.2-5.2-14.8-5.8c-1.5-0.2-2.5-1.4-2.4-2.9
		c0.1-1.3,1.2-2.3,2.6-2.4c0.1,0,0.2,0,0.3,0c6,0.6,11.6,2.7,16.2,6c10,6.9,16.1,19,14.8,32c-0.2,2.1-0.6,4-1.2,6l7.7,2.2
		c2.3-0.7,4.5-1.5,6.7-2.5c0.5-2.9,0.9-6,0.9-9.1c0-24.4-18-44.6-41.4-48c-2.8-0.4-5.7-0.4-7.7,0.1c-7.2,1.8-12.5,8.3-12.5,16.1
		c0,7.4,4.8,13.7,11.5,15.8c1.3,0.4,3.2,0.6,4.2,0.7l0,0c7.3,1.3,12.9,7.7,12.9,15.3c0,3.1-0.9,6-2.5,8.4l5.3,3.4
		c2.6,0.7,5.2,1.1,7.9,1.3C79.7,103.2,80.8,99.8,81.1,96.1"/>
	<path id="XMLID_24_" class="st0" d="M81.7,114.4c-13.5,0-26.2-5.3-35.8-14.8C36.3,90,31.1,77.3,31.1,63.8S36.4,37.6,45.9,28
		c0.7-0.7,2-0.7,2.7,0s0.7,2,0,2.7c-8.8,8.8-13.7,20.6-13.7,33.1S39.8,88,48.6,96.9c8.8,8.8,20.6,13.7,33.1,13.7s24.2-4.9,33.1-13.7
		c0.7-0.7,2-0.7,2.7,0s0.7,2,0,2.7C107.9,109.1,95.2,114.4,81.7,114.4"/>
</g>
</svg>
